<svg height="960" viewBox="0 0 960 960" width="960" xmlns="http://www.w3.org/2000/svg"><g fill="none" fill-rule="evenodd"><g stroke="#000" stroke-linecap="round" stroke-linejoin="round"><path d="m196.773748 438.988474v-9.558182c-.170615-27.803548-.408456-75.255614-.713521-142.356198 0-11.999379 7.973144-22.537664 19.520771-25.801045l105.8424-29.911263c2.790868-.788704 5.691214-1.119419 8.588006-.979254l379.527938 18.363837c14.287836.691332 25.516955 12.476405 25.516955 26.7803v236.9036m0 93.80645v49.087661c0 14.54394-11.595891 26.435862-26.135863 26.803085-41.78921 1.055432-73.131118 1.847006-94.025723 2.374722" stroke-width="20"/><path d="m325.783082 230.351198v406.781537" stroke-width="20"/><path d="m602.536562 672.754666 12.440922-4.910285c46.735344-21.189911 84.737482-59.457827 106.798144-107.270047 1.58961-3.445174-1.737533-7.319756-2.323458-11.277852-.716933-4.843089 1.15085-9.813 2.323458-14.296435.762023-2.913577 3.158303-13.915259 6.441778-16.341445 2.195742-1.62245 8.686538-3.961479 9.255504-9.3144 2.905867-27.338864 3.113995-78.995299.534978-91.575115-20.500923-99.998524-105.547583-174.972154-207.348857-174.972154-97.61872 0-179.831286 68.939531-204.498438 162.776883-.532144 2.02435-1.738811 39.005046-.377511 67.378586 1.258228 26.225197 1.805751 56.679356 5.855635 68.156954 12.184517 34.531604 32.361562 65.019781 58.185793 89.013305 6.652204 6.402441 13.38175 10.707306 20.18864 12.914594" stroke-width="10"/><path d="m545.019495 645.369453c17.501828 0 34.382181 3.282261 50.25859-2.174684 68.778827-23.640252 118.716199-94.521782 118.716199-178.289331 0-103.103846-75.65259-186.686028-168.974789-186.686028-93.3222 0-168.97479 83.582182-168.97479 186.686028 0 76.488482 41.635728 142.233133 101.233596 171.078997 20.73801 10.03737 43.650877 9.385018 67.741194 9.385018z" stroke-width="10"/><path d="m762.024401 697.461591c-8.214587-2.559112-10.753817-11.291561-11.385036-14.070974-6.383378-28.107583-19.240106-94.03055-23.29328-113.27974-3.307561-15.708156-3.770535-27.801566-1.388919-36.28023 5.675699-16.771365 13.467702-31.553017 23.37601-44.344955 14.862463-19.187906 9.08702-14.217678 17.259414-24.018189 3.466421-4.157007 7.692044-10.698895 12.093343-14.547834 5.97515-5.225275 13.049488-7.314213 26.20523-8.739758 22.846266-2.475601 53.812085-.899226 68.442993 2.474703s21.895087 11.168919 27.736315 31.159931c5.841228 19.991011 26.905828 103.023273 32.832257 127.77035 5.926428 24.747078 10.708276 50.842162 12.627978 61.854059 1.919703 11.011896 8.628118 30.15944-12.627978 32.022637-21.256097 1.863197-161.479434 3.239594-171.878327 0z" stroke-width="20"/><path d="m776.707649 453.561502c-3.924099 6.6172 1.375985 35.354359 9.993724 71.525518s23.239229 96.012226 28.752605 118.260099c2.891557 11.668166 4.440365 32.679512 16.473665 45.041464 9.106392 9.355103 23.092228 12.888155 64.217194 10.014131" stroke-width="10"/><path d="m882.655316 622.733576c19.370899-11.114278 25.429807-45.572402 13.532951-76.964374-11.896857-31.391973-37.244381-47.830292-56.61528-36.716014-19.370898 11.114278-25.429807 45.572402-13.53295 76.964374 11.896856 31.391973 37.24438 47.830292 56.615279 36.716014z" stroke-width="10"/><path d="m879.591623 614.649478c16.615873-9.533549 21.813053-39.090866 11.608227-66.018114-10.204826-26.927249-31.947298-41.027628-48.56317-31.494078-16.615872 9.533549-21.813053 39.090866-11.608227 66.018114 10.204826 26.927249 31.947298 41.027628 48.56317 31.494078z" stroke-width="10"/></g><path d="m866.444192 579.957641c4.79304-2.750063 6.292226-11.276212 3.348526-19.043687-2.943699-7.767476-9.215566-11.834893-14.008606-9.084831-4.79304 2.750063-6.292227 11.276212-3.348527 19.043687 2.9437 7.767476 9.215566 11.834893 14.008607 9.084831z" fill="#000"/><path d="m53.8750884 707.780811c-8.9496184-2.788098-11.716056-12.301916-12.4037558-15.330027-6.954555-30.622617-20.9616879-102.444293-25.3775348-123.415878-3.6035183-17.113704-4.1079177-30.289218-1.5131982-39.526542 6.1835535-18.272048 14.6727762-34.376344 25.4676682-48.312889 16.192338-20.904818 9.9001157-15.48986 18.8037656-26.167309 3.7765926-4.528972 8.3803194-11.656219 13.1754409-15.849557 6.5098003-5.692827 14.2171415-7.968681 28.5500427-9.521781 24.890523-2.697116 58.627128-.979688 74.567192 2.696136 15.940064 3.675825 23.854234 12.168301 30.218128 33.948085 6.363894 21.779783 29.313329 112.241674 35.770048 139.203091 3.330137 13.905704 6.328559 28.202079 8.738531 40.433066 1.176684 5.971854-29.94957 10.471425-44.508579 25.321388-13.43672 13.705244-9.756093 38.05677-22.979691 38.243856-52.665259.7451-121.0699234.595582-128.5080576-1.721639z" stroke="#000" stroke-linecap="round" stroke-linejoin="round" stroke-width="20"/><path d="m69.8721763 442.05683c-4.2752228 7.209299 1.499106 38.517826 10.8879502 77.925537 9.3888441 39.407712 25.3186485 104.603287 31.3253545 128.841873 3.15029 12.71222 4.837684 35.603637 17.94771 49.071721 8.878437 9.120924 22.014152 13.162151 56.787238 11.666903" stroke="#000" stroke-linecap="round" stroke-linejoin="round" stroke-width="10"/><path d="m185.299915 626.366222c21.104184-12.10877 27.705237-49.650167 14.743864-83.851056-12.961374-34.200889-40.576964-52.11009-61.681148-40.001319-21.104184 12.10877-27.705236 49.650166-14.743863 83.851055s40.576963 52.11009 61.681147 40.00132z" stroke="#000" stroke-linecap="round" stroke-linejoin="round" stroke-width="10"/><path d="m182.440761 618.821834c18.533088-10.633574 24.329943-43.601351 12.947637-73.635589-11.382306-30.034239-35.633524-45.761585-54.166613-35.128011-18.533088 10.633575-24.329943 43.601351-12.947637 73.63559s35.633524 45.761585 54.166613 35.12801z" stroke="#000" stroke-linecap="round" stroke-linejoin="round" stroke-width="10"/><path d="m167.516649 579.44191c5.112576-2.9334 6.711708-12.027959 3.571762-20.313266s-9.829938-12.623885-14.942514-9.690486c-5.112576 2.9334-6.711708 12.027959-3.571762 20.313266 3.139947 8.285308 9.829938 12.623886 14.942514 9.690486z" fill="#000"/><path d="m413.445927 645.813837c54.259621-1.29506 91.988201.096903 118.554027 1.07813 11.613933.428969 21.055897.780872 28.79086.780872 13.745416 0 23.090119 4.504976 29.576478 10.474444 9.119122 8.392429 12.593335 20.25774 13.410212 28.991797l.125644 1.342505c.069975.74793.139603 1.493798.209004 2.245042l.082495.897147c.041408.452608.082551.906098.124006 1.368277l.0808.908093c.843083 9.555896 1.532396 19.995297 1.532396 37.552679 0 12.831375-4.232361 21.269724-10.154163 27.094014-7.111608 6.994505-17.314133 10.20515-27.732189 11.336643-11.161137 1.212198-56.512533 4.007256-102.500766 6.275611l-3.566506.174806c-12.498676.608683-24.979643 1.175046-36.764615 1.656912-12.369039.505746-25.61296.920347-38.946201 1.25936l-3.627135.090328-2.759662.066252c-44.149037 1.043222-87.832183 1.283865-102.253981 1.293252l-.863001.000291c-19.695832 0-43.939952-2.858339-56.745454-9.51194-14.420576-7.492776-20.648092-19.110672-23.073858-43.37807-2.01041-20.112166 1.447271-29.069452 7.639548-42.887702.617731-1.378483 11.070986-13.536198 16.664576-16.860993 13.42542-7.979985 27.515113-13.959769 40.562184-15.352277 15.450638-1.64904 73.202268-5.023447 151.635301-6.895473z" stroke="#000" stroke-linecap="round" stroke-linejoin="round" stroke-width="20"/><path d="m271.764093 652.006629c-22.190557 0-28.621954 26.930433-26.1245 61.236238 2.497453 34.305804-2.454027 65.073625 32.548765 67.108331" stroke="#000" stroke-linecap="round" stroke-linejoin="round" stroke-width="10"/><rect fill="#000" height="17.552717" rx="6" width="24.866349" x="288.047677" y="738.367041"/><ellipse cx="433.903846" cy="712.5" rx="40.865385" ry="42.5" stroke="#000" stroke-linecap="round" stroke-linejoin="round" stroke-width="10" transform="matrix(-1 0 0 1 867.807692 0)"/><path d="m433.903846 670c22.569329 0 40.865385 19.027898 40.865385 42.5s-18.296056 42.5-40.865385 42.5c-1.659211 0-8.147918 0-9.807692 0-22.569329 0-40.865385-19.027898-40.865385-42.5s18.296056-42.5 40.865385-42.5z" stroke="#000" stroke-linecap="round" stroke-linejoin="round" stroke-width="10"/></g></svg>