<svg height="600" viewBox="0 0 600 600" width="600" xmlns="http://www.w3.org/2000/svg"><g fill="none" fill-rule="evenodd" transform="translate(9 143)"><path d="m463.246989 289.786956c-5.08388-1.594262-6.65537-7.034357-7.046021-8.765861-3.950574-17.510315-11.907403-58.578659-14.415849-70.570418-2.046998-9.785785-2.333525-17.319674-.85958-22.601668 3.512601-10.448137 8.334951-19.656733 14.467049-27.625787 9.198146-11.953581 5.623815-8.857255 10.681582-14.962726 2.145314-2.58971 4.760487-6.665141 7.484382-9.062933 3.697928-3.255215 8.076125-4.55657 16.218009-5.444649 14.139198-1.542237 33.303462-.560195 42.358303 1.541678s13.550528 6.957955 17.165573 19.41185 16.651599 64.180898 20.319373 79.597703c3.667775 15.416805 6.627185 31.673383 7.81526 38.533517 1.188074 6.860133 5.339807 18.788569-7.81526 19.949294s-99.937108 2.018186-106.372821 0z" stroke="#000" stroke-linecap="round" stroke-linejoin="round" stroke-width="15.976511"/><path d="m472.806241 138c-2.404775 4.118676.843234 22.005252 6.124375 44.518896 5.281142 22.513644 14.241516 59.759907 17.620235 73.607422 1.77201 7.262498 2.721154 20.340375 10.095428 28.034698 5.580599 5.822801 14.151429 8.021842 39.353721 6.232993" stroke="#000" stroke-linecap="round" stroke-linejoin="round" stroke-width="12.781208"/><path d="m537.843314 242.869002c11.998979-6.818129 15.752068-27.956698 8.382759-47.214317-7.369308-19.257618-23.070408-29.341817-35.069387-22.523687-11.998979 6.818129-15.752068 27.956698-8.382759 47.214317 7.369308 19.257618 23.070408 29.341817 35.069387 22.523687z" stroke="#000" stroke-linecap="round" stroke-linejoin="round" stroke-width="12.781208"/><path d="m536.511878 238.156975c10.352061-5.89676 13.59002-24.178767 7.232185-40.834004s-19.903881-25.376706-30.255941-19.479946c-10.352061 5.89676-13.59002 24.178767-7.232185 40.834004s19.903881 25.376706 30.255941 19.479946z" stroke="#000" stroke-linecap="round" stroke-linejoin="round" stroke-width="12.781208"/><path d="m527.901237 217.452852c3.058563-1.750601 4.015233-7.178071 2.136782-12.122595-1.878452-4.944524-5.880693-7.53371-8.939256-5.783109s-4.015233 7.178071-2.136782 12.122595c1.878452 4.944524 5.880693 7.53371 8.939256 5.783109z" fill="#000"/><g stroke="#000" stroke-linecap="round" stroke-linejoin="round"><path d="m114.442148 123.177593c-.105725-17.203083-.253108-46.56343-.442148-88.081041 0-7.4244591 4.940723-13.9448853 12.096448-15.9640599l65.587419-18.50720348c1.729419-.48800052 3.526678-.6926258 5.321735-.60590105l235.182292 11.36238503c8.853751.4277522 15.812106 7.7196124 15.812106 16.569961v234.9948794c0 8.998873-7.185632 16.356845-16.195625 16.584059-25.895544.653035-45.317202 1.142811-58.264973 1.469328" stroke-width="25.562417"/><path d="m193.5 0v252" stroke-width="12.781208"/><path d="m373.329666 272c36.518848-16.528301 64.467754-49.785557 74.96355-90.504055 2.945563-11.427329 3.506457-55.476221 1.587561-64.819493-12.75594-62.109796-65.673073-108.676452-129.015145-108.676452-60.739632 0-111.893355 42.8188346-127.241577 101.101883-.331107 1.257338-1.081911 24.226312-.234892 41.849319.782886 16.288658 1.123562 35.203953 3.643452 42.332771 7.581364 21.447825 20.135783 40.384249 36.203954 55.286798" stroke-width="12.781208"/><path d="m329 251.686394c10.875539 0 21.364897 7.849183 31.23041 4.467828 42.738783-14.648503 73.76959-58.569708 73.76959-110.475636 0-63.8875189-47.010101-115.678586-105-115.678586s-105 51.7910671-105 115.678586c0 47.39551 25.872211 88.133686 62.905997 106.007808 12.886484 6.21958 27.124414 0 42.094003 0z" stroke-width="12.781208"/><path d="m25.3881963 295.689008c-5.5521401-1.722991-7.2683752-7.602348-7.6950086-9.473663-4.3144481-18.924191-13.00415542-63.308613-15.74364659-76.268651-2.23554102-10.575941-2.54845896-18.718157-.93875382-24.426647 3.83613624-11.291775 9.10265731-21.243922 15.79956331-29.856441 10.045359-12.918777 6.1418071-9.572437 11.6654294-16.170896 2.3429123-2.798817 5.19896-7.20332 8.1737445-9.794723 4.0385324-3.518058 8.8199919-4.924492 17.7117988-5.884278 15.4415155-1.666766 36.3709392-.605429 46.2597937 1.66616 9.888854 2.27159 14.798625 7.519778 18.74664 20.979267 3.948016 13.459489 18.185325 69.363207 22.190926 86.024847 2.065942 8.593459 3.926095 17.428345 5.421187 24.986861.729988 3.690492-18.580034 6.47114-27.612113 15.648133-8.335836 8.469579-6.052458 23.518356-14.256079 23.633971-32.6723307.460458-75.1090321.368059-79.7234817-1.06394z" stroke-width="15.976511"/><path d="m35.8838687 131c-2.6363159 4.468629.9244236 23.874979 6.7140536 48.301547s15.6127426 64.837546 19.3167777 79.861648c1.9426261 7.879572 2.9831573 22.068642 11.0674535 30.416731 5.4748876 5.653534 13.5750254 8.158458 35.0178465 7.23164" stroke-width="12.781208"/><path d="m106.651482 245.667422c13.175349-7.463088 17.296388-30.601252 9.204599-51.680537-8.09179-21.079285-25.3322131-32.117394-38.5075626-24.654307-13.1753495 7.463088-17.2963888 30.601252-9.2045989 51.680537 8.0917898 21.079285 25.3322126 32.117394 38.5075625 24.654307z" stroke-width="12.781208"/><path d="m105.320046 240.926597c11.528431-6.633855 15.134341-27.201112 8.054024-45.938255-7.080316-18.737142-22.1656856-28.548794-33.6941164-21.914939s-15.1343402 27.201112-8.0540241 45.938255c7.0803161 18.737142 22.1656861 28.548794 33.6941165 21.914939z" stroke-width="12.781208"/></g><path d="m95.6628704 216.424055c3.2938374-1.842738 4.3240972-7.555865 2.3011497-12.760627-2.0229474-5.204761-6.3330531-7.93022-9.6268905-6.087483-3.2938374 1.842738-4.3240972 7.555865-2.3011497 12.760627 2.0229474 5.204761 6.3330531 7.93022 9.6268905 6.087483z" fill="#000"/><path d="m276.586383 250.219483c19.450653.022206 34.386362.574912 45.940087 1.003447 7.116605.263959 12.902283.482622 17.642014.482622 10.667215 0 17.832784 3.651473 22.842279 8.2811 6.98217 6.452714 9.776004 15.536231 10.403922 22.278083.076098.816453.108491 1.163948.141168 1.516095l.069956.757018c.011393.123889.022759.247829.034097.371855l.06766.745469c.571784 6.349978 1.053642 13.104097 1.053642 24.859925 0 10.27742-3.561793 16.91643-8.251907 21.548658-5.42767 5.360681-13.130344 8.056969-21.138851 8.930411-6.528442.71202-31.75648 2.300526-58.52756 3.66725l-2.209559.112139c-.369375.018635-.738952.037225-1.112596.055962l-2.216115.110451c-.370215.018337-.740495.03662-1.11482.055044l-2.217793.108457c-7.410156.360023-14.792068.694893-21.786814.982093l-1.052871.04274c-7.411404.297462-15.299635.543373-23.242371.746172l-2.256779.056437c-.275101.006737-.55021.013424-.82531.02006l-1.650338.03921c-26.673956.624179-52.919698.77876-62.350155.790305l-.759818.000644c-13.725447.000677-30.023166-2.17803-38.653522-6.681074-10.68733-5.576307-15.989473-13.78904-17.823329-32.211893-1.402165-14.086098.957663-20.372258 5.280272-30.058735.48509-1.087034 8.556383-10.833862 12.978937-13.473623 9.221315-5.504077 18.92701-9.511832 27.87314-10.470652 9.654304-1.034721 45.739583-3.162814 94.748791-4.337463 9.316441-.223296 17.85332-.319207 25.680164-.328196z" stroke="#000" stroke-linecap="round" stroke-linejoin="round" stroke-width="25.562417"/><path d="m161.52998 261c-15.440247 0-19.91523 16.786333-18.177495 38.169898 1.737735 21.383564-1.707518 40.561825 22.647515 41.830102" stroke="#000" stroke-linecap="round" stroke-linejoin="round" stroke-width="12.781208"/><ellipse cx="272" cy="299" rx="25" ry="26" stroke="#000" stroke-linecap="round" stroke-linejoin="round" stroke-width="7.996557" transform="matrix(-1 0 0 1 544 0)"/><path d="m272 273c13.807119 0 25 11.640597 25 26s-11.192881 26-25 26c-1.015047 0-4.984609 0-6 0-13.807119 0-25-11.640597-25-26s11.192881-26 25-26z" stroke="#000" stroke-linecap="round" stroke-linejoin="round" stroke-width="7.996557"/><rect fill="#000" height="11" rx="3.834363" width="16" x="170" y="314"/></g></svg>